PathFileType	4	(X/Y/Z)	OpenSim_Sub04_EMGStiffKnee_Gyro.trc
DataRate	CameraRate	NumFrames	NumMarkers	Units	OrigDataRate	OrigDataStartFrame	OrigNumFrames
100	100	40	8	m	100	2070	8277
Frame#	Time	torso_imu_offset_imu	pelvis_imu_offset_imu	tibia_r_imu_offset_imu	femur_r_imu_offset_imu	tibia_l_imu_offset_imu	femur_l_imu_offset_imu	toes_r_imu_offset_imu	toes_l_imu_offset_imu
				X1	Y1	Z1	X2	Y2	Z2	X3	Y3	Z3	X4	Y4	Z4	X5	Y5	Z5	X6	Y6	Z6	X7	Y7	Z7	X8		Y8	Z8	

2070	20.69000000	-0.57541650	0.01282731	0.33987143	-0.07786679	-0.09946967	-0.21473761	-0.40728082	-0.16974221	-0.39871258	-0.36290618	-0.28350698	-0.59101971	-0.96996501	0.68599677	-2.45528229	-0.19712377	0.33444017	-1.15629282	0.04364789	0.18866804	-0.34434866	-0.64340825	1.23391334	-1.27498550
2071	20.70000000	-0.59658504	0.01526658	0.32403769	-0.10299041	-0.13853749	-0.23032274	-0.34034278	-0.13908660	-0.42226841	-0.48265099	-0.28513466	-0.59515498	-0.85158919	0.67134042	-2.36071725	-0.37419705	0.40718558	-1.05602383	0.05114583	0.25296300	-0.39199345	-0.58049711	1.28438751	-1.21009378
2072	20.71000000	-0.61565823	0.01168012	0.29821129	-0.14642155	-0.19678685	-0.25006232	-0.22452069	-0.13331176	-0.44395267	-0.56782711	-0.27990162	-0.58617399	-0.75774350	0.72055605	-2.29428197	-0.57533379	0.46670840	-0.94540926	0.06699142	0.30096008	-0.44368990	-0.56272679	1.31391775	-1.14849487
2073	20.72000000	-0.62024290	0.00375031	0.27861778	-0.20161988	-0.25142009	-0.25807437	-0.11652846	-0.13224911	-0.49322568	-0.58759770	-0.27087212	-0.56209829	-0.68462006	0.74774262	-2.27537837	-0.78848003	0.47479945	-0.84444790	0.07227923	0.33811555	-0.47670632	-0.56569772	1.29653513	-1.06793162
2074	20.73000000	-0.61138353	-0.01180413	0.25157011	-0.23594582	-0.29919491	-0.25646847	-0.06081396	-0.15034966	-0.56239548	-0.50105357	-0.26452479	-0.51527396	-0.48438239	0.69077408	-2.30171879	-0.94056269	0.40621379	-0.75243290	0.06039014	0.36958799	-0.49040631	-0.58263471	1.25436774	-0.94933442
2075	20.74000000	-0.58939599	-0.02780468	0.21889192	-0.25634822	-0.34098541	-0.27571913	-0.01870044	-0.15874523	-0.64816476	-0.37186462	-0.23174485	-0.46729875	-0.24881239	0.62271707	-2.31575534	-1.01530969	0.28957340	-0.69923150	0.06123619	0.33253426	-0.48952583	-0.56858943	1.23123493	-0.79284459
2076	20.75000000	-0.55301777	-0.04368279	0.18211372	-0.27206257	-0.36539345	-0.30767800	0.00329097	-0.13365905	-0.73295823	-0.31867218	-0.16964731	-0.43056543	-0.08101191	0.57296066	-2.29729546	-1.04994318	0.17185124	-0.66295361	0.06460234	0.30244734	-0.48756675	-0.58307658	1.19653431	-0.57541508
2077	20.76000000	-0.51009407	-0.06286065	0.13626034	-0.28873315	-0.36804780	-0.33462263	0.00392131	-0.11517183	-0.78950444	-0.32812254	-0.12782005	-0.43097354	0.03760241	0.54174743	-2.24256282	-1.03623070	0.07975814	-0.61095342	0.06643020	0.23739739	-0.47646716	-0.54767975	1.18426458	-0.34387358
2078	20.77000000	-0.46946608	-0.08296324	0.08996469	-0.30884647	-0.34857862	-0.34371811	-0.01177348	-0.09245875	-0.82860452	-0.29032665	-0.10503062	-0.43627043	0.08564491	0.48126598	-2.13469328	-0.98423563	0.02309046	-0.53626831	0.01967225	0.12383623	-0.43109773	-0.33903068	1.30447286	-0.20424947
2079	20.78000000	-0.40545335	-0.09696513	0.03552315	-0.33404411	-0.33374134	-0.33784279	-0.07006228	-0.07928192	-0.87755223	-0.16165161	-0.08360759	-0.42191049	0.14102196	0.38888538	-1.96259658	-0.92776728	-0.02776723	-0.44448732	0.00535917	0.04368842	-0.39505406	0.12680136	1.41762811	-0.18389530
2080	20.79000000	-0.35897638	-0.10591698	-0.01338118	-0.36161484	-0.34248063	-0.31165996	-0.08703864	-0.06907171	-0.92513155	0.00681596	-0.05420188	-0.40786484	0.17827526	0.29940486	-1.70404615	-0.88371277	-0.08487066	-0.33293178	0.03243357	-0.03493267	-0.38662643	0.73560676	1.35844258	-0.25004895
2081	20.80000000	-0.32342848	-0.13643718	-0.04974694	-0.37983052	-0.35277852	-0.26564761	-0.06905378	-0.05958599	-0.96655093	0.17726315	-0.04239077	-0.41031988	0.15185614	0.18227344	-1.40318670	-0.85423340	-0.11092874	-0.22744493	0.01132181	-0.13564585	-0.38892987	1.10287125	1.13828581	-0.33384263
2082	20.81000000	-0.26654593	-0.17961304	-0.08407618	-0.36192557	-0.34694154	-0.21384874	-0.06200212	-0.04381470	-1.01270412	0.33844268	-0.06138628	-0.44878025	0.06603068	0.07768702	-1.08758703	-0.84907651	-0.08780639	-0.18256637	0.04293920	-0.17919530	-0.40359648	0.89829889	0.83923231	-0.39063689
2083	20.82000000	-0.20184091	-0.22037466	-0.11569584	-0.29653045	-0.34118107	-0.15993818	-0.07496411	-0.03240820	-1.06787372	0.46542439	-0.09095823	-0.51449476	-0.07386160	0.00595799	-0.73657428	-0.82062008	-0.03554595	-0.20431470	0.05551739	-0.24147259	-0.40611148	0.57392358	0.47782034	-0.53097381
2084	20.83000000	-0.15288854	-0.25981781	-0.15024523	-0.21130890	-0.35480056	-0.09171015	-0.16050343	-0.03091748	-1.13402149	0.51919876	-0.11370641	-0.57032535	-0.23723466	-0.07099611	-0.36699359	-0.71134057	0.02326956	-0.26158134	0.05505773	-0.34201847	-0.41862312	0.44466741	-0.02120718	-0.71939950
2085	20.84000000	-0.10319142	-0.29479322	-0.17175225	-0.12911046	-0.37610006	-0.02005295	-0.24308017	-0.03752799	-1.19316068	0.48883220	-0.11423051	-0.60568659	-0.44165489	-0.14757444	-0.00071749	-0.51511040	0.05943609	-0.34525806	0.05193869	-0.38326466	-0.44614991	0.26278703	-0.55965374	-0.80683820
2086	20.85000000	-0.03605476	-0.34201505	-0.18513028	-0.07387713	-0.40502918	0.04223584	-0.36607816	-0.06124692	-1.25629705	0.42339817	-0.09335393	-0.60964130	-0.66966052	-0.20456152	0.35445741	-0.26138757	0.04353634	-0.43235804	0.09556862	-0.50293128	-0.51888986	0.12648470	-1.04900622	-0.78580744
2087	20.86000000	0.01403060	-0.37606295	-0.19964077	-0.05632938	-0.43118258	0.10399236	-0.47197996	-0.10776044	-1.36010502	0.36102973	-0.06662314	-0.58341846	-0.96974154	-0.24489673	0.71174223	-0.00583896	-0.01608256	-0.48345280	0.09155232	-0.66170408	-0.64540802	0.09296877	-1.65642299	-0.62071705
2088	20.87000000	0.06519038	-0.39467139	-0.20050389	-0.07979522	-0.43152750	0.15923774	-0.47340214	-0.15641796	-1.49970126	0.28677805	-0.01814813	-0.53236374	-1.37064807	-0.31568669	1.09779704	0.20103165	-0.09095596	-0.47198340	0.13854997	-0.77732539	-0.76668742	-0.17094492	-2.06593280	-0.24626147
2089	20.88000000	0.11893439	-0.40799525	-0.19449993	-0.14534300	-0.42202104	0.20249955	-0.46538811	-0.19201297	-1.65788869	0.15901183	0.07052829	-0.42186445	-1.72504355	-0.42925902	1.55261249	0.34363135	-0.18868959	-0.39121984	0.16961242	-0.94208912	-0.80028056	0.77721814	-2.20285205	-0.27536493
2090	20.89000000	0.17867319	-0.40503047	-0.18607315	-0.25115653	-0.42161260	0.23525517	-0.47478741	-0.23259764	-1.83664912	0.00118263	0.17725185	-0.25269085	-1.78961597	-0.56021209	2.03268224	0.39714584	-0.34837943	-0.23619050	0.06420683	-1.16781603	-0.72803096	-1.14530853	-1.20212039	-0.06592506
2091	20.90000000	0.24459960	-0.38987960	-0.17550346	-0.38940401	-0.42309370	0.24004490	-0.44016550	-0.23310482	-2.05501685	-0.13521884	0.28247206	-0.03169679	-1.29663620	-0.94705810	2.20321503	0.40907618	-0.56167218	-0.01392267	0.29684963	-1.42499278	-0.63037411	-2.10681914	-0.03361353	0.26529328
2092	20.91000000	0.29680092	-0.35776326	-0.17477702	-0.49747407	-0.41764484	0.20334397	-0.30674973	-0.21114994	-2.33046323	-0.21018400	0.38457353	0.23911064	-0.38881487	-1.28238574	1.88574850	0.43205171	-0.74121285	0.24960068	-0.16703983	-1.86732010	-0.40915759	-0.91613427	0.03767712	0.35702281
2093	20.92000000	0.32492185	-0.30718850	-0.19530196	-0.52304508	-0.38981006	0.12387721	-0.24610108	-0.23559653	-2.69200134	-0.21069177	0.47585932	0.56776922	0.03441779	-0.87003242	1.32507474	0.27886774	-0.76459018	0.49952258	-0.34193679	-2.31840309	-0.39550903	-1.12997404	0.19476516	0.28972774
2094	20.93000000	0.35588416	-0.23176810	-0.23118601	-0.49412397	-0.32147381	0.01422920	-0.17684771	-0.27946530	-3.00946241	-0.15518453	0.56567243	0.92149511	-0.27524802	-0.44241769	0.84824344	-0.15956728	-0.58412319	0.63016489	-0.12604789	-2.85163218	-0.60275806	-0.43105807	0.16586049	0.01053985
2095	20.94000000	0.36931637	-0.15748258	-0.25693699	-0.42417205	-0.24000196	-0.10964139	0.01964242	-0.34186453	-3.11029278	-0.00259797	0.69796521	1.25075108	-0.20319881	-0.62410143	0.73743189	-0.49044824	-0.41665183	0.62671025	-0.38305851	-3.52268118	-0.79013887	-0.30719519	0.01456765	0.00905535
2096	20.95000000	0.35636199	-0.08962782	-0.27001029	-0.31967207	-0.20169759	-0.21708290	0.23796865	-0.40222558	-3.07158947	0.26491603	0.83534885	1.56060545	0.22939327	-0.55841410	0.89269837	-0.37794690	-0.43069188	0.58027135	-0.22898543	-4.17036235	-1.08348860	-0.06661018	-0.04832907	-0.07664987
2097	20.96000000	0.34220706	-0.02849953	-0.28089047	-0.18485716	-0.20078143	-0.27344915	0.50544298	-0.43213565	-3.04452770	0.55266371	0.91326427	1.87097162	0.18188499	-0.32025605	0.99471963	-0.15256554	-0.47061701	0.52713058	-0.38180065	-4.79205293	-1.39434809	0.04231252	-0.13178674	-0.15915936
2098	20.97000000	0.33732690	0.01395269	-0.29582570	-0.03701953	-0.18823007	-0.30275677	0.78001081	-0.46878631	-3.11562334	0.71848864	0.92882319	2.18452182	-0.03146434	-0.44851831	1.07539197	-0.18565457	-0.38588283	0.45024957	-0.87231986	-5.17242544	-1.65584366	0.15019085	-0.11537311	-0.22335182
2099	20.98000000	0.35580236	0.04954464	-0.32254809	0.05146502	-0.14555479	-0.32806564	1.07426542	-0.55470472	-3.19275081	0.66655448	0.92731497	2.46714637	-0.06015514	-0.50402871	1.18624611	-0.38041930	-0.22411393	0.38514864	-0.30618128	-5.20805595	-1.94856790	0.17060235	-0.12836346	-0.25525210
2100	20.99000000	0.36861442	0.09567323	-0.35310030	0.05295919	-0.08167576	-0.34595140	1.29394126	-0.68615119	-3.14113591	0.44701806	0.94108981	2.67793859	-0.05301596	-0.42918471	1.16825009	-0.47031385	-0.11346281	0.36854713	0.67143512	-4.96972302	-2.16962812	0.17614014	-0.16740455	-0.24812164
2101	21	0.38202407	0.14711042	-0.38555283	-0.00239002	-0.00120954	-0.36631838	1.26215380	-0.76874177	-2.95380680	0.27290754	0.90003003	2.74068639	-0.18607525	-0.46997019	0.99106466	-0.36335668	-0.09474383	0.38267034	1.40637666	-4.70911398	-2.20125123	0.15468857	-0.16592934	-0.20836697
2102	21.01000000	0.40543066	0.17921994	-0.42738161	-0.04898300	0.09169543	-0.36158447	1.06086866	-0.77677798	-2.68561515	0.19844730	0.76431380	2.57701034	-0.32604753	-0.50042739	0.77774166	-0.14870932	-0.13421450	0.43796989	1.81797847	-3.65391680	-1.77940608	0.07940481	-0.15340607	-0.15205225
2103	21.02000000	0.42454868	0.20235268	-0.46757884	-0.06343048	0.19192359	-0.31668413	0.93800767	-0.70758705	-2.37521611	0.19700078	0.65758837	2.30855913	-0.30115052	-0.45359726	0.62179932	0.03803932	-0.21360692	0.53998547	0.87951483	-1.84134033	-0.83496133	0.02352070	-0.10845636	-0.10883854
2104	21.03000000	0.44539814	0.20322434	-0.50636128	-0.06728569	0.26442723	-0.25337751	0.59002939	-0.69920206	-1.87818728	0.23792535	0.66960957	2.07364813	-0.24883627	-0.40101343	0.53111106	0.10477690	-0.33068531	0.63211873	-0.35056392	-1.08808040	-0.08176874	-0.02551936	-0.06438199	-0.05693197
2105	21.04000000	0.47079465	0.20531345	-0.55155379	-0.10507227	0.28341961	-0.15319595	-0.18736961	-0.63555546	-1.08488051	0.29175321	0.76847570	1.87167235	-0.21156816	-0.37090362	0.46621106	0.11706870	-0.49087721	0.68159787	-0.49490953	-0.93220321	0.20024777	-0.07516127	-0.03390755	-0.00612072
2106	21.05000000	0.48180075	0.23331685	-0.58583493	-0.19346685	0.24660094	-0.02480320	-0.57744232	-0.28742134	-0.01224269	0.33294568	0.87790174	1.72369609	-0.11335486	-0.34417820	0.40414157	0.15727467	-0.66347098	0.73700118	-0.09730707	-0.00857913	0.43300651	-0.11630392	0.00476783	0.02683708
2107	21.06000000	0.48484823	0.23394426	-0.60819136	-0.25222534	0.19644163	0.09786500	-0.27070625	0.06771369	1.18655163	0.19879118	0.92953659	1.67861542	-0.01754328	-0.29738344	0.37367291	0.21758988	-0.77704789	0.82792628	-0.44802630	0.74880411	0.62565192	-0.11179554	0.02673237	0.02480465
2108	21.07000000	0.49742208	0.21104636	-0.62403839	-0.26877317	0.18971203	0.21997119	0.06361293	0.13238396	2.20821303	-0.13810214	0.92804313	1.73401137	0.07730122	-0.26217166	0.36449130	0.27898195	-0.79778610	0.92628220	-0.91103587	1.11193481	0.64230542	-0.09315828	0.04094781	0.01042031
2109	21.08000000	0.52639683	0.20134466	-0.62906809	-0.29871486	0.19739125	0.32553098	-0.05007899	0.04531722	2.90355588	-0.52787823	0.90080424	1.80007535	0.15512501	-0.24129153	0.35638926	0.32288894	-0.73447745	1.00425404	-0.92197073	1.65377778	0.69879190	-0.09522859	0.02441376	0.01970599
